<svg width="32" height="33" viewBox="0 0 32 33" fill="none" xmlns="http://www.w3.org/2000/svg">
<path d="M0 16.8579C0 8.02138 7.16344 0.857941 16 0.857941C24.8366 0.857941 32 8.02138 32 16.8579C32 25.6945 24.8366 32.8579 16 32.8579C7.16344 32.8579 0 25.6945 0 16.8579Z" fill="#FCFCFC" fill-opacity="0.3"/>
<path fill-rule="evenodd" clip-rule="evenodd" d="M10.6633 16.1879C10.6633 13.6106 12.7526 11.5213 15.33 11.5213C17.9073 11.5213 19.9966 13.6106 19.9966 16.1879C19.9966 17.4452 19.4994 18.5864 18.6909 19.4255C18.6681 19.443 18.6461 19.4623 18.6252 19.4832C18.6043 19.5041 18.585 19.5261 18.5675 19.5489C17.7284 20.3574 16.5872 20.8546 15.33 20.8546C12.7526 20.8546 10.6633 18.7653 10.6633 16.1879ZM19.0751 20.8759C18.0486 21.697 16.7466 22.1879 15.33 22.1879C12.0162 22.1879 9.32996 19.5017 9.32996 16.1879C9.32996 12.8742 12.0162 10.1879 15.33 10.1879C18.6437 10.1879 21.33 12.8742 21.33 16.1879C21.33 17.6046 20.839 18.9066 20.0179 19.9331L22.468 22.3832C22.7284 22.6436 22.7284 23.0657 22.468 23.326C22.2077 23.5864 21.7855 23.5864 21.5252 23.326L19.0751 20.8759Z" fill="#2D3440"/>
</svg>
