<svg width="32" height="14" viewBox="0 0 32 14" fill="none" xmlns="http://www.w3.org/2000/svg">
<path d="M0.232955 10.8579V0.676122H3.79261C4.50189 0.676122 5.08688 0.798755 5.54759 1.04402C6.00829 1.28597 6.35133 1.61244 6.5767 2.02342C6.80208 2.43109 6.91477 2.88351 6.91477 3.38067C6.91477 3.81817 6.83688 4.17944 6.68111 4.46447C6.52865 4.74951 6.32647 4.97489 6.07457 5.14061C5.82599 5.30633 5.55587 5.42896 5.2642 5.50851V5.60794C5.57576 5.62783 5.88897 5.7372 6.20384 5.93607C6.5187 6.13493 6.7822 6.41997 6.99432 6.79118C7.20644 7.16239 7.3125 7.61646 7.3125 8.1534C7.3125 8.66381 7.1965 9.12286 6.96449 9.53053C6.73248 9.9382 6.36624 10.2613 5.86577 10.5C5.36529 10.7386 4.71402 10.8579 3.91193 10.8579H0.232955ZM1.46591 9.76419H3.91193C4.71733 9.76419 5.28906 9.60841 5.62713 9.29686C5.96851 8.98199 6.1392 8.60084 6.1392 8.1534C6.1392 7.8087 6.05137 7.49052 5.87571 7.19885C5.70005 6.90387 5.44981 6.66855 5.125 6.49288C4.80019 6.31391 4.41572 6.22442 3.97159 6.22442H1.46591V9.76419ZM1.46591 5.15055H3.75284C4.12405 5.15055 4.45881 5.07764 4.7571 4.9318C5.05871 4.78597 5.29735 4.58048 5.47301 4.31533C5.65199 4.05018 5.74148 3.73862 5.74148 3.38067C5.74148 2.93322 5.5857 2.55373 5.27415 2.24217C4.9626 1.92731 4.46875 1.76987 3.79261 1.76987H1.46591V5.15055ZM10.0543 3.22158L11.8839 6.34374L13.7134 3.22158H15.0657L12.5998 7.03976L15.0657 10.8579H13.7134L11.8839 7.89487L10.0543 10.8579H8.70206L11.1282 7.03976L8.70206 3.22158H10.0543ZM19.5277 11.017C18.8383 11.017 18.2334 10.853 17.7131 10.5248C17.196 10.1967 16.7917 9.73768 16.5 9.14771C16.2116 8.55775 16.0675 7.86836 16.0675 7.07953C16.0675 6.28408 16.2116 5.58971 16.5 4.99643C16.7917 4.40316 17.196 3.94246 17.7131 3.61433C18.2334 3.28621 18.8383 3.12215 19.5277 3.12215C20.2171 3.12215 20.8203 3.28621 21.3374 3.61433C21.8577 3.94246 22.2621 4.40316 22.5504 4.99643C22.8421 5.58971 22.9879 6.28408 22.9879 7.07953C22.9879 7.86836 22.8421 8.55775 22.5504 9.14771C22.2621 9.73768 21.8577 10.1967 21.3374 10.5248C20.8203 10.853 20.2171 11.017 19.5277 11.017ZM19.5277 9.96305C20.0514 9.96305 20.4822 9.82882 20.8203 9.56036C21.1584 9.29189 21.4086 8.93891 21.571 8.50141C21.7334 8.06391 21.8146 7.58995 21.8146 7.07953C21.8146 6.56911 21.7334 6.0935 21.571 5.65268C21.4086 5.21187 21.1584 4.85557 20.8203 4.58379C20.4822 4.31201 20.0514 4.17612 19.5277 4.17612C19.004 4.17612 18.5732 4.31201 18.2351 4.58379C17.897 4.85557 17.6468 5.21187 17.4844 5.65268C17.322 6.0935 17.2408 6.56911 17.2408 7.07953C17.2408 7.58995 17.322 8.06391 17.4844 8.50141C17.6468 8.93891 17.897 9.29189 18.2351 9.56036C18.5732 9.82882 19.004 9.96305 19.5277 9.96305ZM23.9636 13.0454V9.76419H24.6C24.7557 9.60179 24.89 9.42612 25.0027 9.2372C25.1154 9.04828 25.2131 8.82456 25.296 8.56604C25.3822 8.3042 25.4551 7.98602 25.5147 7.61149C25.5744 7.23365 25.6274 6.77792 25.6738 6.2443L25.9324 3.22158H30.7846V9.76419H31.9579V13.0454H30.7846V10.8579H25.1369V13.0454H23.9636ZM25.9324 9.76419H29.6113V4.31533H27.0261L26.8272 6.2443C26.7444 7.04307 26.6416 7.74075 26.519 8.33734C26.3964 8.93393 26.2008 9.40955 25.9324 9.76419Z" fill="#2D3440"/>
</svg>
